<svg width="20" height="28" viewBox="0 0 20 28" fill="none" xmlns="http://www.w3.org/2000/svg">
<path d="M9.99967 0.679688C4.85834 0.679688 0.676758 4.86388 0.676758 10.0052C0.676758 15.9825 8.63236 25.6922 8.97103 26.1016L9.99967 27.349L11.0283 26.1016C11.367 25.6909 19.3226 15.9825 19.3226 10.0052C19.3226 4.86254 15.141 0.679688 9.99967 0.679688ZM9.99967 3.34635C13.6703 3.34635 16.6559 6.33454 16.6559 10.0052C16.6559 13.6119 12.5037 19.8149 9.99967 23.1016C7.49567 19.8176 3.34342 13.6172 3.34342 10.0052C3.34342 6.33454 6.32901 3.34635 9.99967 3.34635ZM9.99967 6.66667C8.15834 6.66667 6.66634 8.15867 6.66634 10C6.66634 11.8413 8.15834 13.3333 9.99967 13.3333C11.841 13.3333 13.333 11.8413 13.333 10C13.333 8.15867 11.841 6.66667 9.99967 6.66667Z" fill="#CFD3DA"/>
</svg>
