<svg width="30" height="20" viewBox="0 0 30 20" fill="none" xmlns="http://www.w3.org/2000/svg">
<path d="M0.90623 6.61458C2.22394 7.55208 3.8854 8.69792 9.72915 12.5521C10.875 13.3333 12.9948 15.0521 15 15.0521C17.0625 15.0521 19.125 13.3333 20.3281 12.5521C26.1719 8.69792 27.8333 7.55208 29.151 6.61458C29.3802 6.45833 29.6666 6.61458 29.6666 6.875V17.5C29.6666 18.9062 28.4635 20 26.9166 20H3.08331C1.59373 20 0.333313 18.9062 0.333313 17.5V6.875C0.333313 6.61458 0.677063 6.45833 0.90623 6.61458ZM15 13.3333C13.6823 13.3854 11.7916 11.8229 10.8177 11.1979C3.1979 6.19792 2.62498 5.72917 0.90623 4.47917C0.56248 4.27083 0.333313 3.90625 0.333313 3.48958V2.5C0.333313 1.14583 1.59373 0 3.08331 0H26.9166C28.4635 0 29.6666 1.14583 29.6666 2.5V3.48958C29.6666 3.90625 29.4948 4.27083 29.151 4.47917C27.4323 5.72917 26.8594 6.19792 19.2396 11.1979C18.2656 11.8229 16.375 13.3854 15 13.3333Z" fill="#CFD3DA"/>
</svg>
