<svg width="27" height="25" viewBox="0 0 27 25" fill="none" xmlns="http://www.w3.org/2000/svg">
<path d="M26.9668 18.8552L25.7002 23.7808C25.5419 24.5123 24.9086 25 24.1171 25C10.8184 24.9512 0 14.9538 0 2.66419C0 1.93267 0.474953 1.34745 1.26654 1.20115L6.59657 0.0307126C7.33538 -0.115592 8.12697 0.274553 8.44361 0.908539L10.9239 6.22427C11.1878 6.85825 11.0295 7.58977 10.449 7.97992L7.59925 10.1257C9.39351 13.4907 12.3488 16.2217 16.0429 17.8799L18.3648 15.2464C18.787 14.7587 19.5786 14.5636 20.2647 14.8075L26.0169 17.0996C26.7029 17.4409 27.1251 18.1725 26.9668 18.8552Z" fill="#CFD3DA"/>
</svg>
