<svg width="41" height="35" viewBox="0 0 41 35" fill="none" xmlns="http://www.w3.org/2000/svg">
<g clip-path="url(#clip0_1_970)">
<path d="M40.6492 27.8429L0.649898 28.0772L0.527832 0.457031L40.5271 0.222817L40.6492 27.8429ZM2.11774 26.5935L39.1683 26.3765L39.0593 1.70649L2.00871 1.92344L2.11774 26.5935Z" fill="white"/>
<path d="M31.5436 34.2759L30.0692 34.2845L30.0652 33.3847L11.2819 33.4947L11.2859 34.3945L9.81152 34.4031L9.80103 32.0283L31.5331 31.9011L31.5436 34.2759Z" fill="white"/>
<path d="M25.1856 33.4131L16.1551 33.466L16.1372 29.4097L17.6116 29.401L17.623 31.9824L23.7047 31.9467L23.6933 29.3654L25.1676 29.3568L25.1856 33.4131Z" fill="white"/>
<path d="M37.4302 3.43416L35.3588 3.44629L35.3653 4.92133L37.4368 4.9092L37.4302 3.43416Z" fill="white"/>
<path d="M34.0543 3.45418L31.9828 3.46631L31.9893 4.94135L34.0608 4.92922L34.0543 3.45418Z" fill="white"/>
<path d="M30.6707 3.4742L28.5992 3.48633L28.6058 4.96137L30.6772 4.94924L30.6707 3.4742Z" fill="white"/>
<path d="M17.3538 22.8235L13.3288 22.847L13.3182 20.4353C12.5577 20.1816 11.8556 19.7801 11.2488 19.2526L9.16792 20.4744L7.14 16.9977L9.22091 15.7833C9.13806 15.3855 9.09944 14.9875 9.09768 14.5892C9.09592 14.191 9.13102 13.7925 9.21034 13.3938L7.11882 12.2038L9.1159 8.70357L11.2075 9.90088C11.8096 9.36633 12.5082 8.96397 13.2663 8.69402L13.2556 6.27495L17.2806 6.25138L17.2912 8.66307C18.0517 8.91676 18.7538 9.31829 19.3606 9.84577L21.4489 8.62398L23.4768 12.1007L21.3959 13.315C21.4787 13.7128 21.5173 14.1109 21.5191 14.5091C21.5209 14.9074 21.4858 15.3059 21.4064 15.7046L23.498 16.8945L21.5009 20.3948L19.402 19.1975C18.7998 19.7321 18.1013 20.1344 17.3431 20.4044L17.3538 22.8235ZM14.7893 21.3634L15.8656 21.3571L15.8564 19.2847L16.4235 19.1486C17.3145 18.9295 18.116 18.4601 18.747 17.7927L19.1432 17.3699L20.9465 18.3993L21.4805 17.4595L19.6846 16.4375L19.8443 15.876C19.9751 15.4327 20.0394 14.9751 20.0374 14.5252C20.0354 14.0753 19.9671 13.6184 19.8398 13.1766L19.6751 12.6171L21.4619 11.5741L20.9196 10.6406L19.1255 11.691L18.7256 11.2729C18.0887 10.6129 17.2831 10.1529 16.3901 9.94429L15.8219 9.81486L15.8127 7.73505L14.7365 7.74136L14.7456 9.81379L14.1786 9.94986C13.2875 10.169 12.4861 10.6383 11.855 11.3058L11.4588 11.7285L9.66287 10.6991L9.12887 11.6389L10.9248 12.6609L10.7577 13.2298C10.627 13.6731 10.5626 14.1234 10.5647 14.5806C10.5667 15.0305 10.635 15.4874 10.7697 15.9291L10.9343 16.4887L9.14754 17.5317L9.68982 18.4652L11.4766 17.4148L11.8765 17.8329C12.5134 18.4929 13.319 18.9529 14.2119 19.1615L14.7801 19.291L14.7893 21.3634Z" fill="white"/>
<path d="M15.3178 17.4439C13.7255 17.4533 12.4223 16.1628 12.4152 14.5698C12.4082 12.9767 13.6999 11.6711 15.2922 11.6618C16.8845 11.6525 18.1877 12.9429 18.1947 14.5359C18.2018 16.129 16.9101 17.4346 15.3178 17.4439ZM15.2987 13.1295C14.5173 13.134 13.8861 13.772 13.8896 14.5538C13.893 15.3356 14.5298 15.9661 15.3112 15.9615C16.0926 15.957 16.7238 15.319 16.7203 14.5372C16.7169 13.7628 16.0801 13.1249 15.2987 13.1295Z" fill="white"/>
<path d="M26.0784 21.969C24.7441 21.9768 23.6556 20.899 23.6497 19.5641C23.6438 18.2292 24.7227 17.1387 26.057 17.1309C27.3913 17.123 28.4797 18.2009 28.4856 19.5358C28.4915 20.8707 27.4127 21.9612 26.0784 21.969ZM26.0635 18.6133C25.5475 18.6163 25.1218 19.0392 25.1241 19.5628C25.1264 20.0865 25.5485 20.5044 26.0719 20.5013C26.5879 20.4983 27.0136 20.0754 27.0113 19.5518C27.009 19.0281 26.5796 18.6103 26.0635 18.6133Z" fill="white"/>
<path d="M29.1382 15.5198C27.4943 15.5295 26.1541 14.2024 26.1468 12.5577C26.1396 10.913 27.468 9.57031 29.1119 9.56069C30.7558 9.55106 32.096 10.8782 32.1032 12.5228C32.1105 14.1675 30.7821 15.5102 29.1382 15.5198ZM29.1184 11.0357C28.2927 11.0406 27.6175 11.7231 27.6212 12.5491C27.6248 13.3751 28.306 14.0496 29.1317 14.0448C29.9647 14.0399 30.6325 13.3575 30.6289 12.5315C30.6252 11.7054 29.944 11.0309 29.1184 11.0357Z" fill="white"/>
<path d="M29.8451 8.60514L28.3707 8.61377L28.3782 10.3027L29.8525 10.2941L29.8451 8.60514Z" fill="white"/>
<path d="M26.8536 9.25231L25.8156 10.3013L27.0143 11.4887L28.0524 10.4397L26.8536 9.25231Z" fill="white"/>
<path d="M26.8737 11.8158L25.1855 11.8257L25.1921 13.3007L26.8802 13.2908L26.8737 11.8158Z" fill="white"/>
<path d="M27.018 13.6196L25.8296 14.8208L26.8767 15.8577L28.0651 14.6565L27.018 13.6196Z" fill="white"/>
<path d="M29.8724 14.778L28.3981 14.7866L28.4055 16.4755L29.8799 16.4669L29.8724 14.778Z" fill="white"/>
<path d="M31.2366 13.5961L30.199 14.6455L31.3983 15.8324L32.4359 14.783L31.2366 13.5961Z" fill="white"/>
<path d="M33.0514 11.7797L31.3633 11.7896L31.3698 13.2646L33.0579 13.2547L33.0514 11.7797Z" fill="white"/>
<path d="M31.3639 9.22797L30.1755 10.4292L31.2227 11.4661L32.4111 10.2649L31.3639 9.22797Z" fill="white"/>
</g>
<defs>
<clipPath id="clip0_1_970">
<rect width="40" height="34" fill="white" transform="matrix(0.999983 -0.00585535 0.00441943 0.99999 0.527832 0.457031)"/>
</clipPath>
</defs>
</svg>
